<svg xmlns="http://www.w3.org/2000/svg" viewBox="0 0 1920 1080" preserveAspectRatio="xMidYMid slice"><defs><filter id="starGlow" x="-100%" y="-100%" width="300%" height="300%"><feGaussianBlur stdDeviation="1.1" result="glow"/><feMerge><feMergeNode in="glow"/><feMergeNode in="SourceGraphic"/></feMerge></filter></defs><g fill="white">
<circle cx="32" cy="54" r=".8"/><circle cx="88" cy="311" r=".9"/><circle cx="147" cy="987" r=".7"/><circle cx="203" cy="138" r=".8"/><circle cx="276" cy="805" r=".9"/><circle cx="344" cy="624" r=".7"/><circle cx="402" cy="201" r=".8"/><circle cx="463" cy="912" r=".9"/><circle cx="528" cy="456" r=".7"/><circle cx="594" cy="742" r=".8"/><circle cx="655" cy="126" r=".9"/><circle cx="718" cy="1002" r=".7"/><circle cx="781" cy="564" r=".8"/><circle cx="845" cy="334" r=".9"/><circle cx="904" cy="889" r=".7"/><circle cx="971" cy="148" r=".8"/><circle cx="1036" cy="639" r=".9"/><circle cx="1098" cy="924" r=".8"/><circle cx="1165" cy="73" r=".7"/><circle cx="1228" cy="521" r=".9"/><circle cx="1287" cy="814" r=".8"/><circle cx="1354" cy="287" r=".7"/><circle cx="1418" cy="1021" r=".8"/><circle cx="1482" cy="446" r=".9"/><circle cx="1547" cy="676" r=".7"/><circle cx="1615" cy="168" r=".8"/><circle cx="1678" cy="847" r=".9"/><circle cx="1743" cy="590" r=".7"/><circle cx="1808" cy="244" r=".8"/><circle cx="1880" cy="955" r=".9"/>
<circle cx="61" cy="472" r="1.2"/><circle cx="122" cy="690" r="1.5"/><circle cx="185" cy="222" r="1.3"/><circle cx="259" cy="973" r="1.4"/><circle cx="319" cy="381" r="1.1"/><circle cx="385" cy="856" r="1.6"/><circle cx="448" cy="112" r="1.2"/><circle cx="516" cy="528" r="1.5"/><circle cx="587" cy="911" r="1.3"/><circle cx="643" cy="259" r="1.4"/><circle cx="706" cy="687" r="1.1"/><circle cx="776" cy="76" r="1.6"/><circle cx="832" cy="472" r="1.3"/><circle cx="896" cy="996" r="1.5"/><circle cx="958" cy="365" r="1.2"/><circle cx="1025" cy="812" r="1.4"/><circle cx="1086" cy="197" r="1.6"/><circle cx="1154" cy="619" r="1.2"/><circle cx="1216" cy="939" r="1.3"/><circle cx="1279" cy="348" r="1.5"/><circle cx="1348" cy="755" r="1.4"/><circle cx="1404" cy="118" r="1.2"/><circle cx="1468" cy="584" r="1.6"/><circle cx="1535" cy="994" r="1.3"/><circle cx="1598" cy="414" r="1.5"/><circle cx="1664" cy="703" r="1.2"/><circle cx="1729" cy="172" r="1.4"/><circle cx="1788" cy="865" r="1.6"/><circle cx="1851" cy="526" r="1.3"/>
<circle cx="91" cy="121" r="2"/><circle cx="236" cy="530" r="2.4"/><circle cx="391" cy="924" r="2.2"/><circle cx="548" cy="297" r="2.6"/><circle cx="703" cy="803" r="2.3"/><circle cx="859" cy="167" r="2.5"/><circle cx="1013" cy="557" r="2.1"/><circle cx="1176" cy="1016" r="2.4"/><circle cx="1325" cy="435" r="2.6"/><circle cx="1489" cy="712" r="2.2"/><circle cx="1654" cy="261" r="2.5"/><circle cx="1812" cy="876" r="2.3"/>
<g filter="url(#starGlow)"><circle cx="178" cy="781" r="2.5"/><circle cx="624" cy="163" r="2.3"/><circle cx="932" cy="914" r="2.7"/><circle cx="1264" cy="641" r="2.4"/><circle cx="1702" cy="358" r="2.6"/><circle cx="457" cy="930" r="3.3"/><circle cx="1094" cy="284" r="3.1"/><circle cx="1569" cy="799" r="3.5"/></g>
</g></svg>
